<svg width="644" height="91" viewBox="0 0 644 91" fill="none" xmlns="http://www.w3.org/2000/svg">
<path d="M184.623 42.3723C191.039 44.6061 192.333 52.0246 192.283 58.109C192.128 81.4641 168.736 75.0181 153.461 75.9395C145.916 76.3323 143.962 74.0522 144.366 66.3065C144.71 59.712 143.729 17.8327 146.029 15.6767C160.668 14.7892 197.22 7.83376 186.144 33.4022C186.063 33.5894 183.539 35.8441 183.049 36.4263C180.723 38.3237 179.708 39.044 176.888 40.3347C179.336 41.04 182.392 41.6797 184.623 42.3723ZM149.053 18.9473C148.86 23.4764 149.343 27.9775 149.224 32.4967L148.649 60.6946C148.553 64.3124 148.106 67.9457 148.106 71.5583L164.576 71.7201C169.181 71.7966 174.104 72.2031 178.659 71.401C180.537 71.0599 182.33 70.3529 183.937 69.3195C187.718 65.7398 188.586 61.9882 188.737 56.915C188.835 53.6343 188.539 50.1428 186.191 47.6425C182.494 43.7037 170.778 43.493 169.999 40.5222C174.786 36.6069 183.586 36.7912 184.486 27.9708C184.749 25.3943 184.54 22.2721 182.831 20.1853C181.348 18.3745 178.947 18.3054 176.783 18.1049C173.283 17.7808 168.796 17.3688 165.318 17.8222C159.903 18.0615 154.448 18.8351 149.053 18.9473Z" fill="#BE304E"/>
<path d="M154.499 20.5996C159.552 20.2852 175.174 19.4073 179.028 22.7465C180.252 23.808 181 25.3202 181.104 26.9424C181.233 28.7352 180.606 30.4318 179.438 31.7793C176.198 35.5182 170.833 34.8437 166.378 35.1571C166.285 38.4611 166.365 41.7305 166.785 45.0103C171.812 45.2813 178.037 45.3787 182.098 48.767C184.871 51.0804 185.634 54.3186 185.947 57.7717C185.986 59.6688 185.468 61.4951 184.55 63.1546C183.125 65.7294 180.483 66.9814 177.775 67.7572C174.491 68.6983 155.257 69.8453 152.725 68.4267C152.039 66.369 151.395 23.4635 152.087 21.755C152.639 20.9483 153.613 20.8194 154.499 20.5996ZM155.643 64.9895C161.27 65.0225 177.214 66.2285 180.963 62.5644C181.56 61.9809 181.942 61.0928 182.322 60.3554C182.33 60.3402 182.337 60.325 182.344 60.3097C182.964 58.0624 182.994 54.9589 181.823 52.8683C180.593 50.673 178.36 49.71 176.044 49.0729C173.644 48.4126 165.256 48.0433 164.441 46.5596C162.679 43.3534 164.021 36.0313 164.654 32.4919C168.473 32.2562 174.136 32.3634 176.897 29.1856C177.239 28.7917 177.434 28.3123 177.596 27.8212C177.475 26.8327 177.277 26.2334 176.46 25.593C173.594 23.3486 168.414 23.4721 164.935 23.5447C161.933 23.6003 158.69 23.4312 155.749 24.053C154.908 30.1748 155.418 35.6813 155.434 41.793C155.456 49.5634 155.216 57.22 155.643 64.9895Z" fill="#BE304E"/>
<path d="M281.888 63.6127C277.138 55.4558 278.342 52.8464 278.282 43.9017C278.185 29.3636 284.801 10.7257 303.117 14.9573C321.966 19.3123 323.625 40.8167 320.012 56.5936C319.416 59.4054 317.986 61.9765 315.973 64.0509C319.261 65.3055 325.907 65.2741 327.494 67.9739C327.737 71.7163 321.716 71.618 319.211 72.3893C305.973 76.4643 292.198 77.0649 278.683 74.0167C275.842 73.3761 271.963 72.4372 269.334 71.1471C267.947 68.077 279.74 64.6147 281.888 63.6127ZM291.695 66.7136C296.756 68.9851 307.742 67.4345 311.265 62.5203C318.678 54.2174 318.99 33.104 310.071 25.1597C306.502 21.9797 301.333 19.553 296.453 19.8158C293.056 19.9858 289.871 21.5229 287.614 24.0806C283.712 28.4679 283.135 34.6374 282.464 40.2116C281.322 49.6897 280.746 62.8554 291.695 66.7136Z" fill="#BE304E"/>
<path d="M315.973 64.0509C319.261 65.3055 325.907 65.2741 327.494 67.9739C327.737 71.7163 321.716 71.618 319.211 72.3893C305.973 76.4643 292.198 77.0649 278.683 74.0167C275.842 73.3761 271.963 72.4372 269.334 71.1471C267.947 68.077 279.74 64.6147 281.888 63.6127C289.003 73.6645 302.685 73.614 311.997 66.9335L315.973 64.0509Z" fill="#F6BF55"/>
<path d="M293.854 64.1194C287.169 60.4884 286.575 53.9985 285.974 46.4026C285.065 35.1695 292.28 14.797 306.21 26.6248C313.978 33.2198 312.885 55.4342 306.167 62.1824C301.928 65.3883 298.986 65.9959 293.854 64.1194ZM300.847 61.1439C303.757 59.6133 305.102 57.383 306.075 54.272C308.14 47.6613 308.561 39.3124 305.29 33.0091C304.094 30.7034 302.059 28.3979 299.511 27.6096C298.449 27.281 297.154 27.4708 296.06 27.552C293.4 28.6995 292.401 30.3558 291.338 33.024C288.662 39.7401 288.31 49.2033 291.181 55.9149C292.092 58.0424 293.622 59.823 295.801 60.6832C297.399 61.314 299.165 61.2245 300.847 61.1439Z" fill="#BE304E"/>
<path d="M9.1727 60.4674C14.3507 52.2645 16.808 39.9971 19.9217 30.8482C22.9688 21.8946 32.8955 13.2067 41.911 19.575C55.3764 29.0867 55.3735 46.5165 58.3119 60.9154C58.8294 63.4519 68.4327 64.6788 66.8705 72.6888C64.4098 74.9508 56.1744 73.0061 52.6866 73.7067C49.7574 72.909 46.4271 72.8671 43.4086 72.8583C35.4833 72.9401 27.3163 72.6742 19.4444 71.8159C16.1995 71.4622 2.17992 72.0831 0.521539 71.0684C-0.894292 68.9089 0.880164 65.3638 2.19355 63.5109C4.70865 62.229 6.91751 61.5519 9.1727 60.4674ZM6.76816 64.9971C5.10782 65.757 4.25966 66.3176 3.21557 67.8892C10.6493 68.506 18.2634 67.7353 25.2459 68.6446C32.2717 69.66 39.74 69.0352 46.6067 69.4924C52.0615 69.8554 57.5688 70.7778 63.3531 71.1471C60.1417 65.9109 57.3258 67.2476 54.3104 62.5688C53.2126 60.4303 53.6323 57.6194 53.2906 55.3638C51.3153 42.333 49.6627 23.5037 34.6714 19.2022C31.6346 20.626 29.4163 21.7324 26.8652 24.1998C18.218 32.563 18.9468 61.6163 6.76816 64.9971Z" fill="#BE304E"/>
<path d="M406.343 65.0218C403.692 61.8051 401.193 51.7889 401.057 47.6654C400.956 37.9902 401.884 27.86 408.773 20.459C415.759 12.9553 427.393 15.0213 433.388 22.3483C441.476 32.2304 442.309 56.6453 433.455 65.9245C436.727 65.0691 444.622 68.3264 443.659 71.9765C441.82 74.4666 436.528 75.9753 433.568 76.436C423.196 78.0507 405.485 77.2508 396.665 70.8679C399.448 68.7481 402.985 65.9524 406.343 65.0218ZM421.801 66.6403C426.14 65.2436 429.147 63.8811 431.328 59.6158C435.127 52.1979 435.001 40.5051 432.492 32.7089C431.126 28.4768 428.712 24.5536 424.667 22.4905C422.688 21.4815 419.886 20.6635 417.646 20.923C413.212 22.43 410.11 24.4386 407.977 28.7862C403.834 37.2341 404.538 49.0081 407.491 57.6968C408.574 60.8802 410.259 64.036 413.383 65.5799C415.999 66.8726 418.965 66.7593 421.801 66.6403Z" fill="#BE304E"/>
<path d="M396.665 70.8679C399.448 68.7481 402.985 65.9524 406.343 65.0218C409.511 67.4411 410.833 69.9662 415.042 70.7905C422.357 72.224 427.481 69.5787 433.455 65.9245C436.727 65.0691 444.622 68.3264 443.659 71.9765C441.82 74.4666 436.528 75.9753 433.568 76.436C423.196 78.0507 405.485 77.2508 396.665 70.8679Z" fill="#55C4DE"/>
<path d="M417.81 24.0892C420.038 23.8526 421.944 23.8227 423.991 24.8276C427.276 26.4399 429.517 29.6882 430.668 33.0989C432.764 39.2984 432.754 51.569 429.879 57.4113C428.422 60.3757 426.077 61.5012 423.108 62.5117C421.215 62.8474 419.11 63.1038 417.251 62.5057C414.733 61.696 412.884 59.7913 411.707 57.4598C408.164 50.4341 408.141 40.3956 410.565 33.0281C411.915 28.9188 413.935 26.0481 417.81 24.0892ZM421.918 58.6328C423.821 57.9212 424.998 57.1251 425.853 55.2267C428.172 50.0984 428.232 39.9222 426.235 34.6041C425.418 32.423 423.843 30.2773 421.675 29.3063C420.732 28.884 419.731 28.7915 418.715 28.7142C414.661 32.6052 412.736 38.1625 412.6 43.7506C412.505 47.6486 413.373 54.1578 416.137 57.073C417.182 58.1756 418.267 58.7766 419.804 58.8051C420.511 58.8181 421.221 58.7299 421.918 58.6328Z" fill="#BE304E"/>
<path d="M243.708 15.5777C245.523 15.4819 247.372 15.497 249.19 15.5042C250.783 15.5106 253.793 15.3719 254.957 16.5513C256.922 21.2007 254.644 46.1199 254.282 52.3886C253.877 59.4004 253.929 66.1774 252.938 73.1686C249.558 73.3558 242.633 74.0281 240.016 71.763C239.218 71.0722 238.781 70.1042 238.601 69.0777C238.191 66.7447 238.597 63.9161 238.642 61.5246C238.713 58.0582 238.645 54.5906 238.439 51.1296C235.416 51.3494 232.206 51.0395 229.167 50.9782C229.217 54.2495 228.674 68.8753 227.734 71.0408C226.829 71.7719 225.443 71.7379 224.331 71.8502C221.383 71.8499 218.45 71.8122 215.505 71.6548C214.593 69.9512 214.039 68.0773 213.877 66.1492C213.48 61.7077 213.691 18.8686 214.487 17.1277C214.572 16.9419 214.854 16.6846 214.992 16.5185C217.291 15.6293 221.355 16.002 223.841 16.0254C225.049 16.0368 227.233 15.9784 228.128 16.935C229.774 18.6947 229.179 35.7305 229.14 39.1004L239.29 38.9935C239.258 34.5787 238.88 20.1218 240.993 16.9873C241.698 15.9409 242.554 15.7881 243.708 15.5777ZM241.471 42.8124C237.158 41.6889 231.651 41.3678 227.193 41.4132C225.373 36.1896 225.563 25.0813 225.884 19.3164C223.235 19.2306 220.601 19.1578 217.95 19.2502C218.066 30.268 217.899 41.2869 217.447 52.2959C217.271 57.8498 216.762 63.4957 216.878 69.0428C219.586 68.934 222.305 68.8909 224.994 69.304L225.583 69.1755C226.749 64.6763 224.183 51.3875 227.71 48.5655C230.334 47.5829 236.458 47.2002 239.009 48.3561C240.18 48.887 241.019 49.7763 241.461 50.983C242.515 53.8684 241.79 65.7468 241.552 69.3931C244.793 69.6006 248.026 69.9281 251.243 70.3742C250.902 57.6093 252.06 44.7197 252.37 31.9462C252.464 28.0987 253.111 23.1689 252.301 19.4607C250.674 18.1051 245.511 18.4967 243.325 18.4402C242.478 26.493 242.661 34.8383 241.471 42.8124Z" fill="#BE304E"/>
<path d="M345.496 14.3226C353.302 13.6486 361.589 14.6212 369.452 14.6843C374.943 14.7283 380.878 13.5809 386.271 14.6514C387.17 15.3706 387.713 16.0148 388.047 17.157C388.448 18.5276 388.833 27.3616 388.275 28.3917C385.435 30.3599 359.162 30.5325 354.492 30.3959C354.871 35.6721 355.145 40.0139 357.644 44.8215C361.526 52.2886 366.959 55.0411 373.311 59.8569C377.379 62.2493 381.863 63.9332 385.924 66.3303C387.565 67.2999 389.553 68.5386 388.54 70.5979C386.842 71.934 383.649 71.8978 381.572 71.7699C374.684 71.3451 367.691 72.1396 360.841 71.5843C357.632 71.3244 354.549 67.4142 352.492 65.2302C342.416 54.6343 335.032 37.6999 337.014 22.9058C338.008 15.0805 337.273 15.2483 345.496 14.3226ZM342.173 18.9202C342.097 21.9312 341.362 25.0041 341.479 27.9787C341.817 36.4466 346.133 49.248 350.829 56.3261C352.854 59.3829 355.48 62.1195 357.992 64.7787C359.834 66.7301 361.396 67.4776 364.082 67.5398C367.994 67.6299 371.904 67.3942 375.82 67.5316C376.735 67.5357 378.054 67.7422 378.824 67.2761C377.038 65.869 374.365 65.2817 372.355 64.0794C365.139 59.7624 356.281 53.1605 353.091 45.0725C352.069 42.4837 351.775 39.7505 351.444 37.0101C351.132 34.4083 350.097 29.8131 351.778 27.6196C352.365 26.857 353.047 26.6717 353.956 26.5655C356.139 26.3104 358.477 26.4255 360.677 26.3931L376.009 26.2113C378.846 26.1874 381.806 26.3476 384.627 26.043C384.355 23.3716 384.258 20.7209 384.201 18.037C382.478 18.0237 380.619 17.8708 378.915 18.1335C370.938 18.9293 362.92 18.6231 354.915 18.5392C350.737 18.4954 346.294 18.1419 342.173 18.9202Z" fill="#BE304E"/>
<path d="M464.754 14.3336C465.249 14.2918 465.748 14.2676 466.246 14.261C473.996 14.2308 489.531 13.6714 495.236 19.3778C497.489 21.6304 498.416 24.4383 498.419 27.5887C498.423 31.2535 497.64 34.9867 494.983 37.6586C490.017 42.6512 481.21 42.7286 474.637 42.728C476.183 49.5485 479.827 57.6451 484.681 62.6846C486.495 64.8067 489.079 66.2075 490.714 68.4247C491.225 69.1145 491.547 69.7631 491.421 70.6445C491.269 70.845 491.045 71.2492 490.843 71.3724C488.265 72.9448 476.543 73.3234 473.617 72.5774C469.881 71.6249 465.505 65.1443 463.567 61.8584C457.566 51.6873 456.742 42.266 456.884 30.7237C456.947 25.5959 457.111 20.4452 458.383 15.4439C459.475 14.2519 463.204 14.4221 464.754 14.3336ZM482.626 68.419C477.395 62.5209 473.551 56.3083 471.582 48.5665C471.115 46.7227 470.276 41.8313 471.516 40.2855C476.704 37.9769 489.957 42.669 493.44 32.9532C494.948 28.7417 494.712 22.359 489.897 20.5136C489.584 20.3965 489.266 20.3021 488.94 20.2311C482.863 18.0927 474.817 18.2844 468.427 18.2808C466.319 18.2488 462.315 17.8892 460.667 19.0871C459.323 24.4418 460.879 41.7441 462.365 47.7009C464.164 54.9281 470.459 63.3776 475.949 68.4019C478.142 68.4219 480.446 68.4812 482.626 68.419Z" fill="#BE304E"/>
<path d="M469.361 22.7371C470.061 21.8613 470.557 21.2669 471.737 21.1326C477.527 20.4736 484.595 19.615 488.432 25.0067C488.991 26.9831 488.843 28.513 488.773 30.5298C484.381 33.7442 478.499 33.8296 473.245 34.0466C471.91 34.1018 470.468 34.0346 469.484 33.056C468.244 30.3366 469.219 26.0215 469.361 22.7371ZM472.109 31.296C475.64 30.886 479.515 31.2354 482.929 30.331C484.109 29.8345 485.763 29.387 486.277 28.0942C486.533 27.4505 486.416 27.155 486.265 26.5074C484.952 24.7339 482.592 23.8796 480.474 23.5742C478.84 23.3382 476.811 23.3347 475.167 23.5192C474.018 23.6199 473.39 23.5072 472.497 24.2833C471.576 26.4472 472.16 28.9901 472.109 31.296Z" fill="#BE304E"/>
<path d="M84.8024 16.1797C86.7787 16.0937 89.0983 15.7831 91.0398 16.1799C92.3916 16.4562 93.0076 17.1929 93.4945 18.4433C94.444 20.8814 94.3386 23.8395 94.4594 26.4232C94.8564 34.9078 93.6333 53.8443 98.0049 60.4843C99.7761 61.1464 101.581 61.723 103.374 62.3217C106.271 61.5484 108.901 60.8203 111.291 58.8889C123.347 49.1478 115.693 21.6407 118.593 18.1387C119.366 17.8555 120.126 17.723 120.948 17.6958C122.567 17.642 127.1 17.6313 128.26 18.7873C129.912 20.4349 129.996 30.8594 130.021 33.4714C130.127 42.6677 129.603 53.2611 125.863 61.782C123.384 67.4278 118.365 71.4225 112.736 73.609C107.293 75.7231 99.991 75.6523 94.6077 73.2431C90.2825 71.3074 86.4303 67.5221 84.7443 63.0467C83.1799 58.8937 81.8886 53.7758 81.3333 49.3756C80.6703 44.1228 80.759 22.2941 82.8145 17.7454C83.2322 16.8207 83.911 16.5157 84.8024 16.1797ZM126.531 28.0634C126.342 25.6671 126.206 23.2638 125.69 20.9109C124.084 20.7578 122.463 20.5526 120.851 20.5054C120.265 25.6471 120.951 30.4156 121.059 35.5341C121.238 44.0686 120.08 55.6637 112.956 61.3422C109.569 64.0424 104.893 65.0374 100.644 64.5408C98.3186 64.2692 96.2359 63.3059 94.7661 61.4361C89.5366 54.7822 90.6905 39.8473 90.5643 31.7139C90.4917 27.8706 90.2929 24.0308 89.9679 20.2007L85.9349 20.0144C85.0249 31.6403 83.5027 57.5074 91.1862 66.5372C94.0606 69.9151 98.1166 71.4711 102.446 71.803C108.117 72.2383 113.828 70.6804 118.178 66.9119C124.234 61.6658 126.07 50.7209 126.609 43.0282C126.953 38.1213 126.61 32.9863 126.531 28.0634Z" fill="#BE304E"/>
<path d="M597.12 63.0914C597.101 63.6308 597.126 64.3085 597.069 64.8514C596.87 66.7656 597.766 69.3427 596.422 70.918C595.523 71.9718 593.642 72.4575 592.399 72.4306C588.104 72.3373 585.1 73.0382 585.517 67.5855C585.599 54.3301 585.52 41.1581 584.438 27.9562C584.264 25.8575 582.876 20.1042 584.299 18.5112C586.337 17.5022 590.812 17.1469 593.115 17.2697C597.624 17.5101 594.816 25.2741 596.791 27.6432C597.893 26.7991 599.202 24.9203 600.067 23.7124C603.828 18.4527 610.114 18.254 615.977 17.8712C617.475 17.7733 620.334 17.7733 621.521 18.728C622.146 20.7989 622.101 25.8175 621.423 27.8489C619.997 29.0331 617.068 28.6076 615.112 29.1229C600.673 32.9282 597.34 56.2741 614.443 58.4926C616.614 58.774 619.353 58.5659 621.562 59.026C622.18 61.1769 623.133 67.4529 622.051 69.4084C620.29 72.5946 613.998 71.1132 611.101 70.6686C606.072 69.897 600.518 67.0185 597.12 63.0914ZM588.224 69.4537C590.076 69.3903 592.232 69.3731 594.043 69.1079C594.078 66.6784 594.157 64.1467 594.027 61.7268C594.034 59.9046 593.671 56.0057 595.444 55.2407C597.949 56.2154 599.035 60.2596 601.487 62.5761C606.264 67.0817 612.733 67.6134 618.914 67.5468L618.214 62.7929C608.975 63.0403 600.71 59.7101 598.868 49.3051C598.072 44.8294 599.953 37.02 602.758 33.4422C607.088 27.9195 612.537 26.1453 619.268 25.2238L619.167 20.6558C609.628 20.4184 602.427 22.0514 598.675 31.8764C598.158 33.7991 597.653 36.7233 595.545 37.3477L594.797 36.9076C593.235 34.5289 593.551 32.8343 593.522 29.9684C593.298 26.8906 592.935 23.1671 592.957 20.1343C591.212 20.2515 589.575 20.3376 587.846 20.6399C588.874 28.1068 588.619 34.8662 588.694 42.2692C588.789 51.7127 588.877 60.0099 588.224 69.4537Z" fill="#BE304E"/>
<path d="M596.968 27.8802C597.624 29.3035 598.372 30.3777 598.675 31.8764C598.158 33.7991 597.653 36.7233 595.545 37.3477L594.797 36.9076C593.235 34.5289 593.551 32.8343 593.522 29.9684C595.173 28.9486 596.359 28.9475 596.968 27.8802Z" fill="#BE304E"/>
<path d="M597.12 63.0914C597.101 63.6308 597.126 64.3085 597.069 64.8514C596.87 66.7656 597.766 69.3427 596.422 70.918C595.523 71.9718 593.642 72.4575 592.399 72.4306C588.104 72.3373 585.1 73.0382 585.517 67.5855C585.599 54.3301 585.52 41.1581 584.438 27.9562C584.264 25.8575 582.876 20.1042 584.299 18.5112C586.337 17.5022 590.812 17.1469 593.115 17.2697C597.624 17.5101 594.816 25.2741 596.791 27.6432L596.968 27.8802C596.359 28.9475 595.173 28.9486 593.522 29.9684C593.298 26.8906 592.935 23.1671 592.957 20.1343C591.212 20.2515 589.575 20.3376 587.846 20.6399C588.874 28.1068 588.619 34.8662 588.694 42.2692C588.789 51.7127 588.877 60.0099 588.224 69.4537C590.076 69.3903 592.232 69.3731 594.043 69.1079C594.078 66.6784 594.157 64.1467 594.027 61.7268C594.964 62.5371 595.57 62.9781 596.924 62.882C596.955 62.8798 596.987 62.8769 597.019 62.8734L597.12 63.0914Z" fill="#BE304E"/>
<path d="M548.592 18.1755C550.412 18.029 552.539 17.8336 554.347 18.0775C555.411 18.221 556.707 18.6392 557.373 19.5322C559.001 21.7281 557.619 26.8258 557.282 29.4058C550.8 29.998 545.389 29.4754 538.942 31.236C534.711 32.3913 530.719 34.2731 528.456 38.2662C526.62 41.5105 526.014 46.5092 527.005 50.1075C530.242 61.8397 552.151 56.0222 557.304 58.965C557.995 59.3604 558.405 60.5708 558.607 61.3066C559.21 63.5093 559.696 67.6188 558.481 69.6958C557.837 70.7981 556.464 70.9869 555.328 71.2807C553.927 71.5602 552.489 71.5967 551.065 71.6367C541.388 71.9092 528.731 72.8935 521.208 65.716C515.077 59.8633 513.853 52.4536 513.635 44.3487C513.462 38.021 514.891 32.7841 519.321 28.0902C525.411 21.6355 530.324 20.2396 538.838 19.1124C542.085 18.6825 545.313 18.2624 548.592 18.1755ZM551.889 67.4646L555.284 66.9817C555.041 65.6154 554.76 64.2435 554.574 62.8687C546.339 62.9391 532.54 63.5124 526.326 57.3602C523.562 54.622 522.016 50.5359 522 46.6614C521.937 41.6885 523.856 36.8975 527.33 33.3552C532.328 28.3133 540.927 26.5558 547.841 26.5636C550.043 26.5661 552.305 26.65 554.483 26.9742C554.508 25.2884 554.896 22.3079 554.322 20.786L554.133 20.6895C547.408 21.274 535.121 21.6908 529.23 24.7814C527.614 25.6282 522.742 30.1707 521.527 31.6311C517.882 36.0043 517.195 41.2973 517.693 46.8077C518.248 52.9302 520.11 58.8825 524.966 62.9429C532.189 68.979 543.174 66.8072 551.889 67.4646Z" fill="#BE304E"/>
<path d="M30.1669 74.8759C32.4809 74.7001 34.5076 75.0469 36.4495 76.4021C38.2879 77.6817 39.5425 79.646 39.9347 81.8595C40.2951 83.9171 39.9657 86.0664 38.7546 87.7941C37.3861 89.7457 35.5603 90.5044 33.2915 90.9013C31.4585 91.1405 29.608 90.9714 27.9603 90.1001C26.0323 89.0813 24.5828 87.3378 23.9272 85.2494C23.2962 83.1902 23.434 80.9247 24.4472 79.0111C25.7284 76.5915 27.653 75.6472 30.1669 74.8759ZM33.058 86.5934C34.4209 86.082 35.4047 84.8731 35.6341 83.4288C35.8635 81.9845 35.3025 80.5275 34.1659 79.6149C33.0293 78.7021 31.4926 78.4743 30.1423 79.0188C28.0894 79.8463 27.0804 82.1802 27.8787 84.2544C28.6771 86.3285 30.9858 87.3711 33.058 86.5934Z" fill="#BE304E"/>
<path d="M635.686 39.004C637.336 38.8742 638.835 38.7079 640.365 39.4463C641.883 40.1783 643.158 41.5131 643.71 43.1249C644.133 44.3636 644.111 45.7105 643.527 46.8956C642.691 48.5998 641.463 49.3784 639.722 49.9759C638.532 50.2313 637.339 50.3855 636.14 50.0936C634.638 49.7287 633.234 48.8438 632.42 47.5036C631.662 46.2534 631.495 44.8167 631.846 43.4048C632.385 41.2072 633.84 40.1135 635.686 39.004ZM638.393 46.2718C639.28 45.6255 639.699 45.1949 640.088 44.1339C640.047 43.242 639.987 43.0948 639.431 42.3977C638.551 41.9202 637.683 42.0081 636.718 42.0471C636.074 42.7331 635.216 43.5917 635.25 44.6061C635.272 45.3136 635.563 45.5195 636.017 46.0132C636.841 46.3118 637.535 46.3077 638.393 46.2718Z" fill="#BE304E"/>
<path d="M120.523 0.949057C126.328 0.564878 127.708 0.566677 129.364 6.58234C128.52 9.09272 128.213 9.80113 126.168 11.448C123.694 12.379 121.281 11.979 119.498 9.92757C118.43 8.69531 117.895 7.08515 118.013 5.45482C118.166 3.28811 118.984 2.28858 120.523 0.949057ZM124.23 8.4061C126.356 6.42798 125.912 4.66841 123.264 3.5637C122.389 4.5441 121.996 4.89953 121.735 6.20753C122.118 7.94251 122.597 8.00964 124.23 8.4061Z" fill="#BE304E"/>
<path d="M87.0059 0C89.8445 0.246084 91.9486 0.784038 93.1221 3.67301C93.6756 5.07097 93.6604 6.63162 93.0801 8.01856C92.2862 9.89708 91.1809 10.9111 89.3482 11.6557C86.7676 11.6158 84.8478 10.5827 83.7232 8.15881C83.0442 6.71114 82.9653 5.05136 83.5039 3.54515C84.1606 1.73442 85.3357 0.784406 87.0059 0ZM88.9724 8.11239C90.3488 6.47945 89.9521 4.47189 87.8862 3.79454C87.3637 4.83331 86.8595 5.59392 87.0223 6.75416C87.5442 7.54501 87.9014 7.87816 88.9724 8.11239Z" fill="#BE304E"/>
<path d="M297.153 78.237L298.394 78.3293L298.653 78.7986L298.257 80.0639C300.356 80.1496 302.284 78.0678 304.373 78.2804C305.235 78.3683 305.892 78.7646 306.439 79.4198C306.467 80.0785 306.518 80.1413 306.062 80.6646C303.433 80.7134 301.199 82.6451 298.465 83.0398C297.479 83.1823 296.619 83.1308 295.792 82.5105C295.393 81.9505 295.277 81.4743 295.338 80.7832C295.445 79.5785 296.296 78.9566 297.153 78.237Z" fill="#55C4DE"/>
<path d="M406.422 77.7436C406.769 77.7807 407.122 77.8518 407.463 77.9273C408.321 78.1167 408.817 78.4622 409.287 79.2196C409.874 80.1591 409.994 81.1364 409.754 82.2044C409.476 83.4399 408.981 84.0837 407.936 84.7474C407.255 84.7303 406.624 84.604 405.958 84.4609C405.579 84.1954 405.201 83.8971 404.97 83.4869C404.349 82.3852 404.2 81.1627 404.56 79.9494C404.882 78.8566 405.462 78.2712 406.422 77.7436Z" fill="#F6BF55"/>
<path d="M434.225 77.6239C434.632 77.7064 435.032 77.808 435.43 77.9279C436.108 78.1379 436.396 78.4648 436.717 79.0879C437.377 80.3583 437.456 81.6729 437.027 83.0255C436.743 83.9221 436.354 84.4593 435.518 84.8915C434.452 84.7826 433.376 84.7642 432.628 83.8904C432.076 83.2441 431.779 82.4188 431.852 81.565C432.009 79.7152 432.865 78.757 434.225 77.6239Z" fill="#F6BF55"/>
<path d="M278.447 79.7784C281.013 78.889 286.482 75.3991 288.179 79.2726L288.072 78.6599L288.102 79.4338C287.162 80.082 285.473 79.9614 284.281 79.9786C281.932 81.6494 277.438 83.9967 276.24 79.7561L278.447 79.7784Z" fill="#55C4DE"/>
<path d="M266.283 71.5244L266.66 71.9787C266.495 73.0309 265.306 74.2788 264.665 75.1345C266.663 74.6716 269.646 73.5991 271.635 74.405C272.843 74.894 273.094 75.7062 273.563 76.7898C270.757 76.3608 267.235 77.2553 264.747 75.685C264.431 75.1916 264.159 74.9152 264.236 74.2978C264.384 73.1184 265.407 72.2046 266.283 71.5244Z" fill="#55C4DE" fill-opacity="0.988235"/>
<path d="M276.24 79.7561C277.184 78.0349 278.051 76.1981 280.308 77.009L280.512 77.3749C279.678 77.8492 279.269 78.0939 278.52 78.6967C278.364 79.2739 278.257 79.2916 278.447 79.7784L276.24 79.7561Z" fill="#70A5AB" fill-opacity="0.984314"/>
</svg>
